<?xml version="1.0" standalone="no"?>
<svg viewBox="0 0 200 200" xmlns="http://www.w3.org/2000/svg">
  <path fill="#1A6433" d="M19.5,-29.4C30.5,-27.5,48.1,-32.7,60.1,-29C72.1,-25.3,78.4,-12.6,74.5,-2.3C70.6,8.1,56.4,16.3,45.2,21.4C34,26.4,25.8,28.5,18.8,39.1C11.8,49.6,5.9,68.6,-2.5,72.9C-10.8,77.2,-21.6,66.7,-30.7,57.3C-39.7,47.9,-47.1,39.6,-53.8,30.3C-60.6,20.9,-66.7,10.5,-71.8,-2.9C-76.9,-16.3,-80.8,-32.6,-77,-47.1C-73.2,-61.5,-61.6,-74,-47.5,-74.1C-33.3,-74.2,-16.7,-61.9,-6.2,-51.1C4.3,-40.4,8.6,-31.3,19.5,-29.4Z" transform="translate(100 100)" />
</svg>
